HIERARCHY
ROOT Hips
{
	OFFSET 0.00 0.00 0.00
	CHANNELS 6 Xposition Yposition Zposition Xrotation Yrotation Zrotation
	JOINT Spine
	{
		OFFSET 0.00000 7.50895 0.00000
		CHANNELS 3 Xrotation Yrotation Zrotation
		JOINT Head
		{
			OFFSET 0.00000 13.86115 0.00000
			CHANNELS 3 Xrotation Yrotation Zrotation
			End Site
			{
				OFFSET 0.00000 4.52755 0.00000
			}
		}
		JOINT LeftShoulder
		{
			OFFSET 0.00000 8.20478 0.00000
			CHANNELS 3 Xrotation Yrotation Zrotation
			JOINT LeftArm
			{
				OFFSET 6.63596 0.00000 0.00000
				CHANNELS 3 Xrotation Yrotation Zrotation
				JOINT LeftForeArm
				{
					OFFSET 10.27422 0.00000 0.00000
					CHANNELS 3 Yrotation Zrotation Xrotation
					JOINT LeftHand
					{
						OFFSET 8.52215 0.00000 0.00000
						CHANNELS 3 Xrotation Yrotation Zrotation
						JOINT LeftHandThumb1
						{
							OFFSET 0.00000 0.00000 0.00000
							CHANNELS 3 Xrotation Zrotation Yrotation
							End Site
							{
								OFFSET 0.00000 0.00000 3.93700
							}
						}
						End Site
						{
							OFFSET 3.93700 0.00000 0.00000
						}
					}
				}
			}
		}
		JOINT RightShoulder
		{
			OFFSET 0.00000 8.20478 0.00000
			CHANNELS 3 Xrotation Yrotation Zrotation
			JOINT RightArm
			{
				OFFSET -6.63596 0.00000 0.00000
				CHANNELS 3 Xrotation Yrotation Zrotation
				JOINT RightForeArm
				{
					OFFSET -10.27422 0.00000 0.00000
					CHANNELS 3 Yrotation Zrotation Xrotation
					JOINT RightHand
					{
						OFFSET -8.52215 0.00000 0.00000
						CHANNELS 3 Xrotation Yrotation Zrotation
						JOINT RightHandThumb1
						{
							OFFSET 0.00000 0.00000 0.00000
							CHANNELS 3 Xrotation Zrotation Yrotation
							End Site
							{
								OFFSET 0.00000 0.00000 3.93700
							}
						}
						End Site
						{
							OFFSET -3.93700 0.00000 0.00000
						}
					}
				}
			}
		}
	}
	JOINT LeftUpLeg
	{
		OFFSET 3.00056 0.00000 0.00000
		CHANNELS 3 Xrotation Yrotation Zrotation
		JOINT LeftLeg
		{
			OFFSET 0.00000 -16.49085 0.00000
			CHANNELS 3 Xrotation Yrotation Zrotation
			JOINT LeftFoot
			{
				OFFSET 0.00000 -14.55658 0.00000
				CHANNELS 3 Xrotation Yrotation Zrotation
				JOINT LeftToeBase
				{
					OFFSET 0.00000 -1.25038 4.66650
					CHANNELS 3 Xrotation Yrotation Zrotation
					End Site
					{
						OFFSET 0.00000 0.00000 2.95275
					}
				}
			}
		}
	}
	JOINT RightUpLeg
	{
		OFFSET -3.00056 0.00000 0.00000
		CHANNELS 3 Xrotation Yrotation Zrotation
		JOINT RightLeg
		{
			OFFSET 0.00000 -16.49085 0.00000
			CHANNELS 3 Xrotation Yrotation Zrotation
			JOINT RightFoot
			{
				OFFSET 0.00000 -14.55658 0.00000
				CHANNELS 3 Xrotation Yrotation Zrotation
				JOINT RightToeBase
				{
					OFFSET 0.00000 -1.25038 4.66650
					CHANNELS 3 Xrotation Yrotation Zrotation
					End Site
					{
						OFFSET 0.00000 0.00000 2.95275
					}
				}
			}
		}
	}
}
MOTION
Frames: 9
Frame Time: 0.008333
 -3.0720 32.8339 -2.3520 11.1213 -3.7762 -1.3917 -12.5209 7.1401 2.7100 -10.0211 -9.3419 8.9152 15.0593 21.1286 26.9085 -31.5092 -10.0535 -27.5267 -13.4299 -0.0000 7.1903 1.6561 28.2307 -3.4978 33.1476 -0.0000 26.2537 -19.0280 -5.7530 -37.2100 -3.6877 -11.6323 32.7355 17.6241 -0.0000 29.0911 0.9512 -8.6903 6.2710 32.8623 0.0000 -24.3270 -5.9209 12.4968 3.6930 0.5948 0.0000 -0.0000 -9.5828 14.9384 -13.0705 5.1787 0.0000 -0.0000 -7.4161 -7.3934 0.1571 2.8436 0.0000 0.0000 -8.8987 0.1189 -4.8459 -0.7915 -0.0000 0.0000
 -3.0754 32.8344 -2.3530 11.1249 -3.7868 -1.3922 -12.5371 7.1555 2.7202 -9.9985 -9.3455 8.9105 15.0761 21.1336 26.9128 -31.5692 -10.0184 -27.5343 -13.4652 -0.0000 7.1164 1.6603 28.3135 -3.4971 33.1476 -0.0000 26.2537 -19.0278 -5.7605 -37.2300 -3.6902 -11.6525 32.7406 17.6465 -0.0000 29.1391 0.9550 -8.7353 6.2641 32.8623 0.0000 -24.3270 -5.9135 12.4889 3.6991 0.5681 0.0000 -0.0000 -9.5497 14.9665 -13.1008 5.1043 -0.0000 0.0000 -7.4231 -7.3910 0.1661 2.8478 0.0000 0.0000 -8.9026 0.1148 -4.8374 -0.7650 -0.0000 0.0000
 -3.0787 32.8350 -2.3534 11.1245 -3.7894 -1.3929 -12.5533 7.1610 2.7315 -9.9679 -9.3403 8.9127 15.0601 21.1132 26.9159 -31.5405 -10.0228 -27.5219 -13.4487 -0.0000 7.1276 1.6420 28.3042 -3.4598 33.1476 -0.0000 26.2537 -19.0244 -5.7568 -37.2347 -3.6901 -11.6650 32.7157 17.6444 -0.0000 29.1659 0.9538 -8.6938 6.2852 32.8623 0.0000 -24.3270 -5.9015 12.4809 3.7030 0.5407 0.0000 0.0000 -9.5312 14.9792 -13.0950 5.1065 0.0000 0.0000 -7.4220 -7.3843 0.1755 2.8461 -0.0000 0.0000 -8.8961 0.1186 -4.8795 -0.7276 0.0000 -0.0000
 -3.0817 32.8355 -2.3543 11.1244 -3.7954 -1.3909 -12.5673 7.1608 2.7358 -9.9403 -9.3565 8.9202 15.0703 21.1163 26.9244 -31.5377 -10.0150 -27.5200 -13.4443 -0.0000 7.1029 1.6367 28.3072 -3.4482 33.1476 -0.0000 26.2537 -18.9856 -5.7596 -37.2161 -3.7461 -11.7239 32.6784 17.6712 -0.0000 29.1331 0.9577 -8.8770 6.1825 32.8623 0.0000 -24.3270 -5.8883 12.4670 3.7040 0.5132 0.0000 0.0000 -9.5127 15.0093 -13.1009 5.1452 0.0000 -0.0000 -7.4275 -7.4075 0.1811 2.8554 0.0000 0.0000 -8.9014 0.1355 -4.8751 -0.7053 0.0000 -0.0000
 -3.0853 32.8360 -2.3554 11.1199 -3.7983 -1.3908 -12.5723 7.1698 2.7409 -9.9163 -9.3527 8.9417 15.0528 21.0953 26.9391 -31.5027 -10.0078 -27.5089 -13.4482 -0.0000 7.1163 1.6426 28.2835 -3.4634 33.1476 -0.0000 26.2537 -19.0027 -5.7333 -37.2196 -3.7255 -11.7517 32.6552 17.6499 -0.0000 29.1611 0.9433 -8.8063 6.1388 32.8623 0.0000 -24.3270 -5.8741 12.4508 3.7071 0.4892 -0.0000 0.0000 -9.4909 15.0341 -13.1087 5.1232 0.0000 -0.0000 -7.4262 -7.4174 0.1869 2.8583 0.0000 0.0000 -8.8854 0.1466 -4.8734 -0.7712 0.0000 -0.0000
 -3.0883 32.8368 -2.3564 11.1171 -3.7972 -1.3885 -12.5778 7.1648 2.7461 -9.8955 -9.3578 8.9501 15.0609 21.0961 26.9388 -31.4753 -10.0347 -27.5069 -13.3850 -0.0000 7.1944 1.5990 28.1943 -3.3813 33.1476 -0.0000 26.2537 -19.0078 -5.7412 -37.2372 -3.7203 -11.7095 32.6550 17.6190 -0.0000 29.1640 0.9471 -8.8089 6.1611 32.8623 0.0000 -24.3270 -5.8711 12.4489 3.7099 0.4813 -0.0000 0.0000 -9.4702 15.0382 -13.1184 5.1050 -0.0000 -0.0000 -7.4254 -7.4257 0.1906 2.8612 -0.0000 -0.0000 -8.8873 0.1587 -4.8938 -0.7469 -0.0000 0.0000
 -3.0913 32.8367 -2.3581 11.1217 -3.7975 -1.3794 -12.5846 7.1738 2.7557 -9.8988 -9.3599 8.9148 15.0631 21.0440 26.9248 -31.3799 -10.0757 -27.4543 -13.2860 -0.0000 7.1045 1.6034 28.1437 -3.3962 33.1476 -0.0000 26.2537 -19.0151 -5.7476 -37.2813 -3.7202 -11.7117 32.6731 17.6207 -0.0000 29.1971 0.9440 -8.8078 6.1423 32.8623 0.0000 -24.3270 -5.8688 12.4285 3.7035 0.4665 -0.0000 0.0000 -9.4506 15.0639 -13.1176 5.0835 0.0000 0.0000 -7.4327 -7.4226 0.1881 2.8601 -0.0000 0.0000 -8.8946 0.1548 -4.8945 -0.7540 0.0000 0.0000
 -3.0946 32.8379 -2.3596 11.1105 -3.7935 -1.3776 -12.5798 7.1512 2.7459 -9.8617 -9.3496 8.9797 15.0763 21.0823 26.9237 -31.4188 -10.0363 -27.4520 -13.3741 -0.0000 7.1346 1.6110 28.2026 -3.4058 33.1476 -0.0000 26.2537 -18.9977 -5.7532 -37.2237 -3.7577 -11.6774 32.6040 17.5860 -0.0000 29.1489 0.9380 -8.7662 6.1318 32.8623 0.0000 -24.3270 -5.8559 12.4009 3.7063 0.4603 0.0000 -0.0000 -9.4346 15.0869 -13.1343 5.1143 -0.0000 0.0000 -7.4298 -7.4488 0.1924 2.8722 -0.0000 -0.0000 -8.8875 0.1787 -4.9145 -0.7649 -0.0000 0.0000
 -3.0991 32.8385 -2.3612 11.1017 -3.7941 -1.3766 -12.5735 7.1609 2.7446 -9.8443 -9.3642 9.0044 15.0840 21.0808 26.9283 -31.4959 -9.9623 -27.4557 -13.4779 -0.0000 7.0789 1.6786 28.2996 -3.5373 33.1476 -0.0000 26.2537 -18.9806 -5.7636 -37.2181 -3.7665 -11.6833 32.5908 17.5786 -0.0000 29.1730 0.9268 -8.7080 6.0988 32.8623 0.0000 -24.3270 -5.8486 12.3873 3.7130 0.4579 0.0000 0.0000 -9.4285 15.1162 -13.1421 5.1613 -0.0000 0.0000 -7.4194 -7.4521 0.1999 2.8647 -0.0000 0.0000 -8.8825 0.1844 -4.9434 -0.7457 -0.0000 -0.0000
